# xmcd
#
# Track frame offsets: 
#        150
#        11147
#        21417
#        35649
#        49293
#        66916
#        93383
#        135073
#        144566
#        148877
#        159287
#        168355
#        179480
#        188228
#        238900
#        260120
#        272079
#
# Disc length: 3869 seconds
#
# Revision: 0
# Processed by: cddbd v1.5.2PL0 Copyright (c) Steve Scherf et al.
# Submitted via: ExactAudioCopy v1.0b3
#
DISCID=000f1b11
DTITLE=De Grigny, Bach, Boëly - Les chemins de l'écriture
DYEAR=2005
DGENRE=Classical
TTITLE0=Veni creator en taille à 5
TTITLE1=Fugue à 5
TTITLE2=Duo
TTITLE3=Récit de Cromorne
TTITLE4=Dialogue sur les grands jeux
TTITLE5=Fantaisie BWV 562
TTITLE6=Pièce d'orgue BWV 572
TTITLE7=Christum wir sollen loben schon BWV 611
TTITLE8=Réveillez-vous pastoureaux op.15.5
TTITLE9=Das alte Jahr vergangen ist BWV 614
TTITLE10=Voici la première entrée op.15.11
TTITLE11=Herr Gott, nun schleuß den Himmel auf BWV 617
TTITLE12=Bin ich gleich von dir gewichen Ms. 170.7
TTITLE13=Fuga a tre soggetti terminé par A.P.F.  Boëly 1833
TTITLE14=Fantaisie et fugue op.18.6
TTITLE15=Andante à 2 claviers op.18.2
TTITLE16=Toccata op.43.13
EXTD=
EXTT0=
EXTT1=
EXTT2=
EXTT3=
EXTT4=
EXTT5=
EXTT6=
EXTT7=
EXTT8=
EXTT9=
EXTT10=
EXTT11=
EXTT12=
EXTT13=
EXTT14=
EXTT15=
EXTT16=
PLAYORDER=
